<svg xmlns="http://www.w3.org/2000/svg" width="74.294" height="72.552" viewBox="0 0 74.294 72.552">
  <g id="Group_2639" data-name="Group 2639" transform="translate(-765.577 -443.569)">
    <path id="Path_3311" data-name="Path 3311" d="M853.665,453.731l-1.745-6.378a.888.888,0,0,0-1.644-.341l-2.09,2.839-3.234-5.481a1.3,1.3,0,0,0-2.459.151l-4.105,10.631a2.171,2.171,0,0,0,.822,2.6c4.735,2.561,7.7.975,9.4-.908a4.876,4.876,0,0,0,4.74-1.7A1.542,1.542,0,0,0,853.665,453.731Z" transform="translate(-46.926)" fill="#f9ac06"/>
    <path id="Path_3312" data-name="Path 3312" d="M806.677,532.5a44.654,44.654,0,0,1-22.469-2.422,30.159,30.159,0,0,1-17.581-18.94c-2.93-9.483.541-18.24,7.078-26.154a50.491,50.491,0,0,1,4.895-5.168,44.362,44.362,0,0,1,9.241-6.445,29.582,29.582,0,0,1,23.166-2.294c15.109,4.287,29.08,16.444,28.862,31.371a27.822,27.822,0,0,1-9.73,20.3C823.781,528.246,815.18,531.1,806.677,532.5Z" transform="translate(0 -16.889)" fill="#ffc04b"/>
    <circle id="Ellipse_50" data-name="Ellipse 50" cx="4.253" cy="4.253" r="4.253" transform="matrix(0.598, -0.802, 0.802, 0.598, 777.133, 483.758)" fill="#5b462b"/>
    <path id="Path_3313" data-name="Path 3313" d="M819.555,548.9a.945.945,0,1,1-1.058-.818A.945.945,0,0,1,819.555,548.9Z" transform="translate(-33.64 -67.484)" fill="#fff"/>
    <circle id="Ellipse_51" data-name="Ellipse 51" cx="4.253" cy="4.253" r="4.253" transform="matrix(0.958, -0.286, 0.286, 0.958, 816.842, 475.035)" fill="#5b462b"/>
    <path id="Path_3314" data-name="Path 3314" d="M916.431,536.505a.945.945,0,1,0,.818-1.057A.945.945,0,0,0,916.431,536.505Z" transform="translate(-97.406 -59.324)" fill="#fff"/>
    <path id="Path_3315" data-name="Path 3315" d="M835.183,539.278a28.526,28.526,0,0,1-4.516,4.941c-6.357,5.5-14.961,8.35-23.461,9.751a44.685,44.685,0,0,1-22.472-2.42,30.17,30.17,0,0,1-17.581-18.943c-2.928-9.481.544-18.237,7.08-26.153.907-1.1,1.864-2.174,2.872-3.208-6.065,7.676-9.176,16.128-6.358,25.256a30.169,30.169,0,0,0,17.581,18.943,44.681,44.681,0,0,0,22.472,2.42c8.5-1.4,17.1-4.253,23.461-9.75C834.575,539.843,834.884,539.565,835.183,539.278Z" transform="translate(-0.34 -38.535)" fill="#e8a334"/>
    <path id="Path_3316" data-name="Path 3316" d="M830.7,557c0-.033.007-.066.012-.1a2.413,2.413,0,0,1,.97-1.369,24.571,24.571,0,0,1,16.193-4.749,27.031,27.031,0,0,1,4.469.493c2.565.625,3.662,3.524,6.234,4.233.511.141,1.043.193,1.556.33,2.252.6,3.868,3.419,3.9,5.638.041,2.644-2.679,3.931-4.469,5.467l-4.077,3.5a15.352,15.352,0,0,1-15.424,2.709h0c-3.17-1.2-6.422-2.168-9.576-3.414-1.947-.768-4.768-.991-4.471-3.741.361-3.332,5.306-4.426,4.889-7.6A6.615,6.615,0,0,1,830.7,557Z" transform="translate(-39.013 -69.193)" fill="#f9910a"/>
  </g>
</svg>
